<svg preserveAspectRatio="none" width="100%" height="100%" overflow="visible" style="display: block;" viewBox="0 0 38 30" fill="none" xmlns="http://www.w3.org/2000/svg">
<path id="Vector" d="M36.2495 17.1688C35.7001 16.7465 35.0603 16.4582 34.3807 16.3266C36.7837 13.5844 38 10.8391 38 8.12507C38 3.64539 34.404 9.31364e-05 29.9857 9.31364e-05C27.858 -0.0101439 25.8125 0.823892 24.2951 2.3204C22.7777 0.823892 20.7322 -0.0101439 18.6044 9.31364e-05C14.1861 9.31364e-05 10.5902 3.64539 10.5902 8.12507C10.5902 9.711 11.0138 11.2969 11.8703 12.9219C11.1866 13.205 10.5657 13.6214 10.0435 14.1469L6.69672 17.5H3.11475C2.28867 17.5 1.49642 17.8293 0.91229 18.4153C0.328161 19.0014 0 19.7962 0 20.625L0 26.875C0 27.7038 0.328161 28.4987 0.91229 29.0847C1.49642 29.6708 2.28867 30 3.11475 30H18.6885C18.8413 30.0001 18.9935 29.9812 19.1417 29.9438L29.1089 27.4438C29.2043 27.4203 29.2975 27.3889 29.3877 27.35L35.4334 24.7656C35.4693 24.7516 35.5035 24.736 35.5378 24.7188C36.2139 24.3794 36.7929 23.873 37.2201 23.2472C37.6474 22.6215 37.909 21.8969 37.9801 21.1418C38.0513 20.3866 37.9298 19.6257 37.6271 18.9307C37.3243 18.2356 36.8502 17.6293 36.2495 17.1688ZM18.6044 3.75008C19.4465 3.73705 20.2732 3.97629 20.979 4.43722C21.6848 4.89815 22.2374 5.5598 22.5664 6.33757C22.7072 6.68147 22.9467 6.9756 23.2545 7.18261C23.5623 7.38961 23.9245 7.50013 24.2951 7.50013C24.6656 7.50013 25.0278 7.38961 25.3356 7.18261C25.6434 6.9756 25.883 6.68147 26.0238 6.33757C26.3527 5.5598 26.9054 4.89815 27.6112 4.43722C28.3169 3.97629 29.1437 3.73705 29.9857 3.75008C32.3031 3.75008 34.2623 5.7532 34.2623 8.12507C34.2623 10.9469 31.9262 14.1938 27.5064 17.5297L26.7869 17.6969C26.7869 17.6313 26.7869 17.5657 26.7869 17.5C26.7869 16.174 26.2618 14.9022 25.3272 13.9645C24.3926 13.0268 23.125 12.5001 21.8033 12.5001H15.9958C14.8605 10.9001 14.3279 9.49538 14.3279 8.12507C14.3279 5.7532 16.287 3.75008 18.6044 3.75008ZM3.7377 21.25H5.60656V26.25H3.7377V21.25ZM33.901 21.3453L28.0593 23.8453L18.458 26.25H9.34426V20.1563L12.6864 16.8032C12.8591 16.628 13.0648 16.4889 13.2915 16.3939C13.5182 16.299 13.7614 16.2501 14.007 16.25H21.8033C22.1337 16.25 22.4506 16.3817 22.6843 16.6162C22.9179 16.8506 23.0492 17.1685 23.0492 17.5C23.0492 17.8316 22.9179 18.1495 22.6843 18.3839C22.4506 18.6183 22.1337 18.75 21.8033 18.75H17.4426C16.947 18.75 16.4716 18.9476 16.1211 19.2992C15.7707 19.6508 15.5738 20.1278 15.5738 20.625C15.5738 21.1223 15.7707 21.5992 16.1211 21.9509C16.4716 22.3025 16.947 22.5 17.4426 22.5H22.4262C22.5672 22.5001 22.7077 22.4843 22.8452 22.4531L33.2796 20.0453L33.3528 20.0266C33.4592 19.9976 33.5708 19.9935 33.679 20.0147C33.7872 20.0359 33.889 20.0819 33.9767 20.149C34.0643 20.2161 34.1354 20.3025 34.1844 20.4016C34.2334 20.5007 34.259 20.6097 34.2592 20.7203C34.2599 20.847 34.2272 20.9716 34.1643 21.0814C34.1013 21.1912 34.0105 21.2823 33.901 21.3453Z" fill="var(--fill-0, #E4794F)"/>
</svg>
