<svg preserveAspectRatio="none" width="100%" height="100%" overflow="visible" style="display: block;" viewBox="0 0 41.5533 43.418" fill="none" xmlns="http://www.w3.org/2000/svg">
<g id="Group 60">
<path id="Vector 8" d="M16.1184 17.5687C15.4841 18.2922 15.1969 19.2077 14.4823 20.9331C13.866 22.4211 8.63112 24.874 7.01743 20.5919C6.7264 19.8197 6.72443 20.8205 6.32677 20.3329L8.33545 23.9027L10.0882 25.7593L11.8527 27.4995C9.52143 24.6933 14.0223 24.5733 15.5446 24.6933C16.7228 24.7861 18.2052 25.5305 20.1532 26.0706C21.8124 26.5224 22.6873 26.5522 24.1755 26.2763C28.5776 25.0316 32.9164 23.4905 36.757 21.5521C37.0943 21.2149 37.9935 20.0908 38.0761 19.6262C33.0932 21.5574 28.5174 23.1823 24.1291 24.0583C23.6154 23.6434 23.5689 23.4711 23.6986 23.0044C28.7711 21.9285 34.1561 20.5053 38.7804 18.5171C38.9038 18.3781 39.4548 17.393 39.545 16.8134C33.1974 18.9001 28.9491 20.3329 22.986 21.5982C22.4519 21.3514 22.3544 21.1393 22.4384 20.6685C22.9406 20.6979 33.6284 17.9968 39.9044 15.6974C40.1292 15.3697 40.288 14.5943 40.3541 14.0208C34.569 16.0068 28.2583 17.5687 21.8429 19.1381C21.1953 18.7494 21.0689 18.4072 21.4721 18.1097C28.2583 16.4474 40.5789 13.0092 40.5789 13.0092C40.5789 13.0092 40.7409 11.9788 40.6788 11.3223C26.4438 14.3477 21.9985 15.415 20.0326 15.6974C18.0667 15.9799 17.2294 16.3014 16.1184 17.5687Z" fill="var(--fill-0, #EEE0D3)"/>
<path id="Ellipse 23" d="M26.2723 26.2907C26.8767 28.1039 33.6782 31.0271 36.8528 32.1214C34.172 32.7162 31.2044 32.653 28.1914 31.949C28.6525 32.3958 29.135 32.8313 29.6384 33.2537C31.3004 34.6483 33.0633 35.7934 34.8595 36.6838C28.5844 38.2578 20.6295 36.1368 14.2004 30.5481C9.96215 26.8638 7.01739 23.0095 6.49932 18.9513C6.28989 17.3108 4.25426 15.7566 2.87275 14.9795C4.08157 14.2887 4.77233 14.0297 5.2904 13.2526C6.04008 12.128 5.68973 11.6586 6.9311 10.2305C7.13018 10.0015 7.57435 9.65093 7.79455 9.45343C10.3848 7.38115 14.184 7.64018 17.2925 9.45343C17.897 9.80595 18.3286 10.2305 19.5375 11.8711C20.3474 12.9701 20.7462 13.9434 20.9189 14.8932" stroke="var(--stroke-0, #EEE0D3)" stroke-width="2.04545"/>
<path id="Ellipse 24" d="M11.4215 10.7755C12.1216 10.7757 12.6891 11.3439 12.6891 12.044C12.6889 12.744 12.1214 13.3114 11.4215 13.3116C10.7213 13.3116 10.1531 12.7441 10.1529 12.044C10.1529 11.3438 10.7212 10.7755 11.4215 10.7755Z" fill="var(--fill-0, #EEE0D3)" stroke="var(--stroke-0, #EEE0D3)" stroke-width="0.227273"/>
</g>
</svg>
