<svg preserveAspectRatio="none" width="100%" height="100%" overflow="visible" style="display: block;" viewBox="0 0 24 24" fill="none" xmlns="http://www.w3.org/2000/svg">
<path id="Vector" d="M16.6154 8.30769V13.8462C16.6154 14.091 16.5181 14.3258 16.345 14.4989C16.1719 14.672 15.9371 14.7692 15.6923 14.7692C15.4475 14.7692 15.2127 14.672 15.0396 14.4989C14.8665 14.3258 14.7692 14.091 14.7692 13.8462V10.5358L8.96077 16.3454C8.87501 16.4311 8.77319 16.4992 8.66114 16.5456C8.54908 16.592 8.42898 16.6159 8.3077 16.6159C8.18641 16.6159 8.06631 16.592 7.95425 16.5456C7.8422 16.4992 7.74038 16.4311 7.65462 16.3454C7.56886 16.2596 7.50082 16.1578 7.45441 16.0457C7.40799 15.9337 7.38411 15.8136 7.38411 15.6923C7.38411 15.571 7.40799 15.4509 7.45441 15.3389C7.50082 15.2268 7.56886 15.125 7.65462 15.0392L13.4642 9.23077H10.1538C9.90903 9.23077 9.67425 9.13351 9.50114 8.9604C9.32803 8.78729 9.23077 8.55251 9.23077 8.30769C9.23077 8.06288 9.32803 7.82809 9.50114 7.65498C9.67425 7.48187 9.90903 7.38461 10.1538 7.38461H15.6923C15.9371 7.38461 16.1719 7.48187 16.345 7.65498C16.5181 7.82809 16.6154 8.06288 16.6154 8.30769ZM24 12C24 14.3734 23.2962 16.6934 21.9776 18.6668C20.6591 20.6402 18.7849 22.1783 16.5922 23.0865C14.3995 23.9948 11.9867 24.2324 9.65892 23.7694C7.33115 23.3064 5.19295 22.1635 3.51472 20.4853C1.83649 18.807 0.693605 16.6689 0.230582 14.3411C-0.232441 12.0133 0.00519941 9.60051 0.913451 7.4078C1.8217 5.21508 3.35977 3.34094 5.33316 2.02236C7.30655 0.703788 9.62663 0 12 0C15.1816 0.00335979 18.2319 1.26872 20.4816 3.51843C22.7313 5.76814 23.9966 8.81843 24 12ZM22.1538 12C22.1538 9.99176 21.5583 8.02861 20.4426 6.35882C19.3269 4.68903 17.7411 3.38759 15.8857 2.61907C14.0303 1.85055 11.9887 1.64947 10.0191 2.04126C8.04943 2.43305 6.24019 3.40011 4.82015 4.82015C3.40011 6.24019 2.43305 8.04943 2.04126 10.0191C1.64947 11.9887 1.85055 14.0303 2.61907 15.8857C3.38759 17.7411 4.68904 19.3269 6.35883 20.4426C8.02862 21.5583 9.99176 22.1538 12 22.1538C14.692 22.1508 17.2729 21.08 19.1765 19.1765C21.08 17.2729 22.1508 14.692 22.1538 12Z" fill="var(--fill-0, white)"/>
</svg>
