<svg preserveAspectRatio="none" width="100%" height="100%" overflow="visible" style="display: block;" viewBox="0 0 151.731 157.907" fill="none" xmlns="http://www.w3.org/2000/svg">
<g id="Group 55">
<path id="Vector 8" d="M59.4903 63.7139C57.1898 66.3379 56.1482 69.6581 53.5568 75.9151C51.3219 81.3115 32.3371 90.2069 26.485 74.6779C25.4295 71.8772 25.4223 75.5069 23.9802 73.7386L31.2648 86.6847L37.6212 93.4177L44.0205 99.7287C35.5659 89.5516 51.8885 89.1167 57.4094 89.5516C61.6821 89.8882 67.058 92.5878 74.1225 94.5467C80.1398 96.1851 83.3125 96.2931 88.7097 95.2927C104.674 90.7788 120.409 85.1897 134.337 78.1599C135.56 76.937 138.822 72.8605 139.121 71.1756C121.05 78.1792 104.456 84.0719 88.5416 87.2488C86.6784 85.7441 86.5099 85.1195 86.9804 83.4269C105.376 79.525 124.905 74.3637 141.675 67.1534C142.123 66.6494 144.121 63.0769 144.448 60.9747C121.428 68.5424 106.021 73.7385 84.396 78.3272C82.4589 77.432 82.1055 76.6629 82.4102 74.9557C84.2314 75.0622 122.991 65.2664 145.751 56.9276C146.567 55.7392 147.143 52.927 147.382 50.8474C126.402 58.0495 103.516 63.7139 80.2503 69.4057C77.9018 67.996 77.4433 66.755 78.9057 65.6761C103.516 59.6474 148.198 47.1785 148.198 47.1785C148.198 47.1785 148.785 43.442 148.56 41.0609C96.936 52.0328 80.8147 55.9034 73.6853 56.9278C66.5559 57.9522 63.5192 59.1181 59.4903 63.7139Z" fill="var(--fill-0, #EEE0D3)"/>
<path id="Ellipse 23" d="M95.2783 95.7938C97.4703 102.37 122.136 112.971 133.649 116.939C123.927 119.096 113.165 118.867 102.238 116.314C103.91 117.934 105.66 119.514 107.486 121.046C113.513 126.103 119.906 130.256 126.42 133.485C103.663 139.193 74.8142 131.501 51.4987 111.233C36.1285 97.8723 25.4492 83.8945 23.5704 69.1772C22.8108 63.2276 15.4285 57.5912 10.4184 54.773C14.8023 52.2679 17.3073 51.3285 19.1861 48.5103C21.9049 44.4322 20.6343 42.7296 25.1362 37.5507C25.8582 36.7202 27.469 35.4488 28.2676 34.7325C37.6614 27.2173 51.4394 28.1567 62.7125 34.7326C64.9046 36.011 66.4699 37.5508 70.854 43.5003C73.7912 47.4861 75.2377 51.0155 75.864 54.46" stroke="var(--stroke-0, #EEE0D3)" stroke-width="7.41796"/>
<path id="Ellipse 24" d="M41.6313 39.4122C44.1706 39.4122 46.2297 41.4706 46.2299 44.0098C46.2299 46.5492 44.1707 48.6084 41.6313 48.6084C39.092 48.6082 37.0336 46.5491 37.0336 44.0098C37.0339 41.4707 39.0922 39.4124 41.6313 39.4122Z" fill="var(--fill-0, #EEE0D3)" stroke="var(--stroke-0, #EEE0D3)" stroke-width="0.824218"/>
</g>
</svg>
