<svg preserveAspectRatio="none" width="100%" height="100%" overflow="visible" style="display: block;" viewBox="0 0 35 35" fill="none" xmlns="http://www.w3.org/2000/svg">
<g id="FacebookLogo">
<path id="Vector" d="M17.5 2.73438C14.5796 2.73438 11.7249 3.60036 9.29666 5.22283C6.86846 6.8453 4.97592 9.15137 3.85834 11.8494C2.74077 14.5475 2.44836 17.5164 3.01809 20.3806C3.58783 23.2449 4.99412 25.8759 7.05913 27.9409C9.12414 30.0059 11.7551 31.4122 14.6194 31.9819C17.4836 32.5516 20.4525 32.2592 23.1506 31.1417C25.8486 30.0241 28.1547 28.1315 29.7772 25.7033C31.3996 23.2751 32.2656 20.4204 32.2656 17.5C32.2613 13.5852 30.7042 9.83207 27.9361 7.06392C25.1679 4.29577 21.4148 2.73872 17.5 2.73438ZM19.1406 28.8654V21.3281H21.875C22.3101 21.3281 22.7274 21.1553 23.0351 20.8476C23.3428 20.5399 23.5156 20.1226 23.5156 19.6875C23.5156 19.2524 23.3428 18.8351 23.0351 18.5274C22.7274 18.2197 22.3101 18.0469 21.875 18.0469H19.1406V15.3125C19.1406 14.8774 19.3135 14.4601 19.6212 14.1524C19.9288 13.8447 20.3461 13.6719 20.7812 13.6719H22.9687C23.4039 13.6719 23.8212 13.499 24.1288 13.1913C24.4365 12.8837 24.6094 12.4664 24.6094 12.0312C24.6094 11.5961 24.4365 11.1788 24.1288 10.8712C23.8212 10.5635 23.4039 10.3906 22.9687 10.3906H20.7812C19.4759 10.3906 18.224 10.9092 17.301 11.8322C16.3779 12.7552 15.8594 14.0071 15.8594 15.3125V18.0469H13.125C12.6899 18.0469 12.2726 18.2197 11.9649 18.5274C11.6572 18.8351 11.4844 19.2524 11.4844 19.6875C11.4844 20.1226 11.6572 20.5399 11.9649 20.8476C12.2726 21.1553 12.6899 21.3281 13.125 21.3281H15.8594V28.8654C12.9857 28.4506 10.3757 26.9628 8.55483 24.7013C6.73391 22.4397 5.83719 19.5724 6.04511 16.6764C6.25304 13.7804 7.55018 11.0706 9.67549 9.09242C11.8008 7.11423 14.5965 6.01447 17.5 6.01447C20.4035 6.01447 23.1992 7.11423 25.3245 9.09242C27.4498 11.0706 28.747 13.7804 28.9549 16.6764C29.1628 19.5724 28.2661 22.4397 26.4452 24.7013C24.6243 26.9628 22.0143 28.4506 19.1406 28.8654Z" fill="var(--fill-0, #EEE0D3)"/>
</g>
</svg>
