<svg preserveAspectRatio="none" width="100%" height="100%" overflow="visible" style="display: block;" viewBox="0 0 40 40" fill="none" xmlns="http://www.w3.org/2000/svg">
<g id="ArrowLineUp">
<path id="Vector" d="M32.5766 22.4234C32.9288 22.7757 33.1267 23.2534 33.1267 23.7516C33.1267 24.2497 32.9288 24.7274 32.5766 25.0797C32.2243 25.4319 31.7466 25.6298 31.2484 25.6298C30.7503 25.6298 30.2726 25.4319 29.9203 25.0797L21.875 17.0312V35C21.875 35.4973 21.6775 35.9742 21.3258 36.3258C20.9742 36.6775 20.4973 36.875 20 36.875C19.5027 36.875 19.0258 36.6775 18.6742 36.3258C18.3225 35.9742 18.125 35.4973 18.125 35V17.0312L10.0766 25.0766C9.72432 25.4288 9.24658 25.6267 8.74844 25.6267C8.25029 25.6267 7.77255 25.4288 7.42031 25.0766C7.06807 24.7243 6.87019 24.2466 6.87019 23.7484C6.87019 23.2503 7.06807 22.7726 7.42031 22.4203L18.6703 11.1703C18.8445 10.9955 19.0515 10.8568 19.2794 10.7622C19.5073 10.6675 19.7517 10.6188 19.9984 10.6188C20.2452 10.6188 20.4896 10.6675 20.7175 10.7622C20.9454 10.8568 21.1524 10.9955 21.3266 11.1703L32.5766 22.4234ZM33.75 4.375H6.25C5.75272 4.375 5.27581 4.57254 4.92417 4.92417C4.57254 5.27581 4.375 5.75272 4.375 6.25C4.375 6.74728 4.57254 7.22419 4.92417 7.57583C5.27581 7.92746 5.75272 8.125 6.25 8.125H33.75C34.2473 8.125 34.7242 7.92746 35.0758 7.57583C35.4275 7.22419 35.625 6.74728 35.625 6.25C35.625 5.75272 35.4275 5.27581 35.0758 4.92417C34.7242 4.57254 34.2473 4.375 33.75 4.375Z" fill="var(--fill-0, #EEE0D3)"/>
</g>
</svg>
