<svg preserveAspectRatio="none" width="100%" height="100%" overflow="visible" style="display: block;" viewBox="0 0 228 77.1147" fill="none" xmlns="http://www.w3.org/2000/svg">
<g id="Frame 57">
<g id="PT&#195;&#129;&#196;&#140;EK">
<mask id="path-1-outside-1_0_205" maskUnits="userSpaceOnUse" x="1.31855" y="-0.175782" width="227" height="52" fill="black">
<rect fill="white" x="1.31855" y="-0.175782" width="227" height="52"/>
<path d="M2.31855 49.6777V11.4255H18.0566C21.4446 11.4255 24.3409 11.972 26.7453 13.0649C29.1861 14.1578 31.0623 15.7243 32.3738 17.7644C33.6853 19.8046 34.3411 22.2272 34.3411 25.0324C34.3411 27.8375 33.6853 30.2601 32.3738 32.3003C31.0623 34.3404 29.1861 35.9069 26.7453 36.9998C24.3409 38.0927 21.4446 38.6392 18.0566 38.6392H6.25306L9.42252 35.3058V49.6777H2.31855ZM9.42252 36.0708L6.25306 32.6281H17.7287C20.8617 32.6281 23.2115 31.9724 24.778 30.6609C26.381 29.313 27.1824 27.4368 27.1824 25.0324C27.1824 22.5915 26.381 20.7153 24.778 19.4038C23.2115 18.0923 20.8617 17.4366 17.7287 17.4366H6.25306L9.42252 13.9392V36.0708Z"/>
<path d="M48.6207 49.6777V17.4366H35.9429V11.4255H68.4025V17.4366H55.7247V49.6777H48.6207Z"/>
<path d="M66.9493 49.6777L84.1627 11.4255H91.1574L108.426 49.6777H100.994L86.1846 15.1961H89.0262L74.2718 49.6777H66.9493ZM74.8729 40.825L76.7856 35.2511H97.4417L99.3543 40.825H74.8729ZM83.0698 8.31071L90.447 0.824218H98.48L88.9716 8.31071H83.0698Z"/>
<path d="M131.008 50.2241C128.094 50.2241 125.38 49.7505 122.866 48.8033C120.389 47.8197 118.221 46.4536 116.363 44.7049C114.542 42.9198 113.121 40.825 112.101 38.4206C111.081 36.0162 110.571 33.3932 110.571 30.5516C110.571 27.71 111.081 25.087 112.101 22.6826C113.121 20.2782 114.56 18.2016 116.418 16.4529C118.276 14.6679 120.444 13.3017 122.921 12.3545C125.398 11.3709 128.112 10.8791 131.063 10.8791C134.196 10.8791 137.056 11.4255 139.642 12.5184C142.229 13.5749 144.415 15.1597 146.2 17.2726L141.61 21.5897C140.225 20.096 138.677 18.9849 136.965 18.2563C135.253 17.4912 133.395 17.1087 131.391 17.1087C129.387 17.1087 127.547 17.4366 125.872 18.0923C124.232 18.7481 122.793 19.6771 121.555 20.8793C120.352 22.0815 119.405 23.5023 118.713 25.1416C118.057 26.781 117.729 28.5843 117.729 30.5516C117.729 32.5188 118.057 34.3222 118.713 35.9615C119.405 37.6009 120.352 39.0217 121.555 40.2239C122.793 41.4261 124.232 42.3551 125.872 43.0109C127.547 43.6666 129.387 43.9945 131.391 43.9945C133.395 43.9945 135.253 43.6302 136.965 42.9016C138.677 42.1365 140.225 40.989 141.61 39.4589L146.2 43.8306C144.415 45.9071 142.229 47.4918 139.642 48.5847C137.056 49.6777 134.178 50.2241 131.008 50.2241ZM127.62 8.31071L120.298 0.824218H125.926L133.358 7.05385H128.112L135.544 0.824218H141.173L133.85 8.31071H127.62Z"/>
<path d="M160.111 27.3275H179.128V33.1746H160.111V27.3275ZM160.657 43.7213H182.242V49.6777H153.553V11.4255H181.477V17.3819H160.657V43.7213Z"/>
<path d="M197.047 40.6611L196.665 32.2456L216.72 11.4255H224.698L208.031 29.1308L204.096 33.4478L197.047 40.6611ZM190.708 49.6777V11.4255H197.812V49.6777H190.708ZM217.375 49.6777L202.73 32.2456L207.43 27.0543L225.682 49.6777H217.375Z"/>
</mask>
<path d="M2.31855 49.6777V11.4255H18.0566C21.4446 11.4255 24.3409 11.972 26.7453 13.0649C29.1861 14.1578 31.0623 15.7243 32.3738 17.7644C33.6853 19.8046 34.3411 22.2272 34.3411 25.0324C34.3411 27.8375 33.6853 30.2601 32.3738 32.3003C31.0623 34.3404 29.1861 35.9069 26.7453 36.9998C24.3409 38.0927 21.4446 38.6392 18.0566 38.6392H6.25306L9.42252 35.3058V49.6777H2.31855ZM9.42252 36.0708L6.25306 32.6281H17.7287C20.8617 32.6281 23.2115 31.9724 24.778 30.6609C26.381 29.313 27.1824 27.4368 27.1824 25.0324C27.1824 22.5915 26.381 20.7153 24.778 19.4038C23.2115 18.0923 20.8617 17.4366 17.7287 17.4366H6.25306L9.42252 13.9392V36.0708Z" fill="var(--fill-0, #EEE0D3)"/>
<path d="M48.6207 49.6777V17.4366H35.9429V11.4255H68.4025V17.4366H55.7247V49.6777H48.6207Z" fill="var(--fill-0, #EEE0D3)"/>
<path d="M66.9493 49.6777L84.1627 11.4255H91.1574L108.426 49.6777H100.994L86.1846 15.1961H89.0262L74.2718 49.6777H66.9493ZM74.8729 40.825L76.7856 35.2511H97.4417L99.3543 40.825H74.8729ZM83.0698 8.31071L90.447 0.824218H98.48L88.9716 8.31071H83.0698Z" fill="var(--fill-0, #EEE0D3)"/>
<path d="M131.008 50.2241C128.094 50.2241 125.38 49.7505 122.866 48.8033C120.389 47.8197 118.221 46.4536 116.363 44.7049C114.542 42.9198 113.121 40.825 112.101 38.4206C111.081 36.0162 110.571 33.3932 110.571 30.5516C110.571 27.71 111.081 25.087 112.101 22.6826C113.121 20.2782 114.56 18.2016 116.418 16.4529C118.276 14.6679 120.444 13.3017 122.921 12.3545C125.398 11.3709 128.112 10.8791 131.063 10.8791C134.196 10.8791 137.056 11.4255 139.642 12.5184C142.229 13.5749 144.415 15.1597 146.2 17.2726L141.61 21.5897C140.225 20.096 138.677 18.9849 136.965 18.2563C135.253 17.4912 133.395 17.1087 131.391 17.1087C129.387 17.1087 127.547 17.4366 125.872 18.0923C124.232 18.7481 122.793 19.6771 121.555 20.8793C120.352 22.0815 119.405 23.5023 118.713 25.1416C118.057 26.781 117.729 28.5843 117.729 30.5516C117.729 32.5188 118.057 34.3222 118.713 35.9615C119.405 37.6009 120.352 39.0217 121.555 40.2239C122.793 41.4261 124.232 42.3551 125.872 43.0109C127.547 43.6666 129.387 43.9945 131.391 43.9945C133.395 43.9945 135.253 43.6302 136.965 42.9016C138.677 42.1365 140.225 40.989 141.61 39.4589L146.2 43.8306C144.415 45.9071 142.229 47.4918 139.642 48.5847C137.056 49.6777 134.178 50.2241 131.008 50.2241ZM127.62 8.31071L120.298 0.824218H125.926L133.358 7.05385H128.112L135.544 0.824218H141.173L133.85 8.31071H127.62Z" fill="var(--fill-0, #EEE0D3)"/>
<path d="M160.111 27.3275H179.128V33.1746H160.111V27.3275ZM160.657 43.7213H182.242V49.6777H153.553V11.4255H181.477V17.3819H160.657V43.7213Z" fill="var(--fill-0, #EEE0D3)"/>
<path d="M197.047 40.6611L196.665 32.2456L216.72 11.4255H224.698L208.031 29.1308L204.096 33.4478L197.047 40.6611ZM190.708 49.6777V11.4255H197.812V49.6777H190.708ZM217.375 49.6777L202.73 32.2456L207.43 27.0543L225.682 49.6777H217.375Z" fill="var(--fill-0, #EEE0D3)"/>
<path d="M2.31855 49.6777V11.4255H18.0566C21.4446 11.4255 24.3409 11.972 26.7453 13.0649C29.1861 14.1578 31.0623 15.7243 32.3738 17.7644C33.6853 19.8046 34.3411 22.2272 34.3411 25.0324C34.3411 27.8375 33.6853 30.2601 32.3738 32.3003C31.0623 34.3404 29.1861 35.9069 26.7453 36.9998C24.3409 38.0927 21.4446 38.6392 18.0566 38.6392H6.25306L9.42252 35.3058V49.6777H2.31855ZM9.42252 36.0708L6.25306 32.6281H17.7287C20.8617 32.6281 23.2115 31.9724 24.778 30.6609C26.381 29.313 27.1824 27.4368 27.1824 25.0324C27.1824 22.5915 26.381 20.7153 24.778 19.4038C23.2115 18.0923 20.8617 17.4366 17.7287 17.4366H6.25306L9.42252 13.9392V36.0708Z" stroke="var(--stroke-0, #EEE0D3)" stroke-width="1.64844" mask="url(#path-1-outside-1_0_205)"/>
<path d="M48.6207 49.6777V17.4366H35.9429V11.4255H68.4025V17.4366H55.7247V49.6777H48.6207Z" stroke="var(--stroke-0, #EEE0D3)" stroke-width="1.64844" mask="url(#path-1-outside-1_0_205)"/>
<path d="M66.9493 49.6777L84.1627 11.4255H91.1574L108.426 49.6777H100.994L86.1846 15.1961H89.0262L74.2718 49.6777H66.9493ZM74.8729 40.825L76.7856 35.2511H97.4417L99.3543 40.825H74.8729ZM83.0698 8.31071L90.447 0.824218H98.48L88.9716 8.31071H83.0698Z" stroke="var(--stroke-0, #EEE0D3)" stroke-width="1.64844" mask="url(#path-1-outside-1_0_205)"/>
<path d="M131.008 50.2241C128.094 50.2241 125.38 49.7505 122.866 48.8033C120.389 47.8197 118.221 46.4536 116.363 44.7049C114.542 42.9198 113.121 40.825 112.101 38.4206C111.081 36.0162 110.571 33.3932 110.571 30.5516C110.571 27.71 111.081 25.087 112.101 22.6826C113.121 20.2782 114.56 18.2016 116.418 16.4529C118.276 14.6679 120.444 13.3017 122.921 12.3545C125.398 11.3709 128.112 10.8791 131.063 10.8791C134.196 10.8791 137.056 11.4255 139.642 12.5184C142.229 13.5749 144.415 15.1597 146.2 17.2726L141.61 21.5897C140.225 20.096 138.677 18.9849 136.965 18.2563C135.253 17.4912 133.395 17.1087 131.391 17.1087C129.387 17.1087 127.547 17.4366 125.872 18.0923C124.232 18.7481 122.793 19.6771 121.555 20.8793C120.352 22.0815 119.405 23.5023 118.713 25.1416C118.057 26.781 117.729 28.5843 117.729 30.5516C117.729 32.5188 118.057 34.3222 118.713 35.9615C119.405 37.6009 120.352 39.0217 121.555 40.2239C122.793 41.4261 124.232 42.3551 125.872 43.0109C127.547 43.6666 129.387 43.9945 131.391 43.9945C133.395 43.9945 135.253 43.6302 136.965 42.9016C138.677 42.1365 140.225 40.989 141.61 39.4589L146.2 43.8306C144.415 45.9071 142.229 47.4918 139.642 48.5847C137.056 49.6777 134.178 50.2241 131.008 50.2241ZM127.62 8.31071L120.298 0.824218H125.926L133.358 7.05385H128.112L135.544 0.824218H141.173L133.85 8.31071H127.62Z" stroke="var(--stroke-0, #EEE0D3)" stroke-width="1.64844" mask="url(#path-1-outside-1_0_205)"/>
<path d="M160.111 27.3275H179.128V33.1746H160.111V27.3275ZM160.657 43.7213H182.242V49.6777H153.553V11.4255H181.477V17.3819H160.657V43.7213Z" stroke="var(--stroke-0, #EEE0D3)" stroke-width="1.64844" mask="url(#path-1-outside-1_0_205)"/>
<path d="M197.047 40.6611L196.665 32.2456L216.72 11.4255H224.698L208.031 29.1308L204.096 33.4478L197.047 40.6611ZM190.708 49.6777V11.4255H197.812V49.6777H190.708ZM217.375 49.6777L202.73 32.2456L207.43 27.0543L225.682 49.6777H217.375Z" stroke="var(--stroke-0, #EEE0D3)" stroke-width="1.64844" mask="url(#path-1-outside-1_0_205)"/>
</g>
<g id="V&#195;&#157;&#197;&#189;IVOV&#195;&#137; PORADENSTV&#195;&#141;">
<path d="M5.01328 76.8913L0 63.8573H2.90505L7.28751 75.4017H5.57769L10.0266 63.8573H12.6992L7.66932 76.8913H5.01328Z" fill="var(--fill-0, #EEE0D3)"/>
<path d="M16.7277 76.8913V71.566L17.342 73.3907L12.2291 63.8573H15.0843L19.002 71.175H17.3586L21.2928 63.8573H23.9323L18.8194 73.3907L19.417 71.566V76.8913H16.7277ZM16.5617 62.796L18.8028 60.1147H21.5916L18.587 62.796H16.5617Z" fill="var(--fill-0, #EEE0D3)"/>
<path d="M24.6424 76.8913V74.9362L31.8303 65.2166L32.1624 66.3152H24.7752V63.8573H34.5528V65.8124L27.3815 75.532L27.0495 74.4335H34.8018V76.8913H24.6424ZM28.5767 62.796L26.3855 60.1147H28.2779L30.5687 62.3305H28.8755L31.1663 60.1147H33.0588L30.8675 62.796H28.5767Z" fill="var(--fill-0, #EEE0D3)"/>
<path d="M36.8585 76.8913V63.8573H39.5478V76.8913H36.8585Z" fill="var(--fill-0, #EEE0D3)"/>
<path d="M46.0749 76.8913L41.0616 63.8573H43.9667L48.3492 75.4017H46.6393L51.0882 63.8573H53.7608L48.731 76.8913H46.0749Z" fill="var(--fill-0, #EEE0D3)"/>
<path d="M60.5775 77.1147C59.6589 77.1147 58.8068 76.9472 58.021 76.612C57.2463 76.2768 56.5713 75.8051 55.9958 75.1969C55.4314 74.5886 54.9887 73.8749 54.6678 73.0556C54.3579 72.2363 54.203 71.3426 54.203 70.3743C54.203 69.4061 54.3579 68.5123 54.6678 67.693C54.9887 66.8738 55.4369 66.16 56.0124 65.5518C56.5879 64.9435 57.2629 64.4718 58.0376 64.1366C58.8123 63.8015 59.6534 63.6339 60.5609 63.6339C61.4794 63.6339 62.3205 63.8015 63.0841 64.1366C63.8588 64.4718 64.5283 64.9435 65.0927 65.5518C65.6682 66.16 66.1164 66.8738 66.4374 67.693C66.7583 68.4999 66.9188 69.3937 66.9188 70.3743C66.9188 71.3426 66.7583 72.2425 66.4374 73.0742C66.1164 73.8935 65.6682 74.6072 65.0927 75.2155C64.5283 75.8113 63.8588 76.2768 63.0841 76.612C62.3205 76.9472 61.4849 77.1147 60.5775 77.1147ZM60.5609 74.5452C61.081 74.5452 61.5569 74.4459 61.9885 74.2473C62.4312 74.0487 62.8185 73.7631 63.1505 73.3907C63.4825 73.0183 63.737 72.5777 63.9141 72.0687C64.1022 71.5598 64.1963 70.995 64.1963 70.3743C64.1963 69.7537 64.1022 69.1888 63.9141 68.6799C63.737 68.171 63.4825 67.7303 63.1505 67.3579C62.8296 66.9855 62.4478 66.7 62.0051 66.5014C61.5624 66.3028 61.081 66.2035 60.5609 66.2035C60.0407 66.2035 59.5593 66.3028 59.1166 66.5014C58.685 66.7 58.3032 66.9855 57.9712 67.3579C57.6392 67.7303 57.3791 68.171 57.191 68.6799C57.0139 69.1888 56.9254 69.7537 56.9254 70.3743C56.9254 70.9826 57.0139 71.5474 57.191 72.0687C57.3791 72.5777 57.6337 73.0183 57.9546 73.3907C58.2866 73.7631 58.674 74.0487 59.1166 74.2473C59.5593 74.4459 60.0407 74.5452 60.5609 74.5452Z" fill="var(--fill-0, #EEE0D3)"/>
<path d="M72.385 76.8913L67.3718 63.8573H70.2768L74.6593 75.4017H72.9494L77.3983 63.8573H80.071L75.0411 76.8913H72.385Z" fill="var(--fill-0, #EEE0D3)"/>
<path d="M83.8466 69.1082H89.4409V71.4543H83.8466V69.1082ZM84.0458 74.4707H90.3705V76.8913H81.3732V63.8573H90.1547V66.2779H84.0458V74.4707ZM84.2616 62.796L86.5027 60.1147H89.2915L86.2868 62.796H84.2616Z" fill="var(--fill-0, #EEE0D3)"/>
<path d="M97.8755 76.8913V63.8573H102.905C103.946 63.8573 104.842 64.0497 105.595 64.4346C106.347 64.807 106.928 65.3469 107.338 66.0545C107.747 66.762 107.952 67.6062 107.952 68.5868C107.952 69.555 107.747 70.3929 107.338 71.1005C106.928 71.8081 106.347 72.3542 105.595 72.739C104.842 73.1114 103.946 73.2976 102.905 73.2976H99.3695L100.565 71.9384V76.8913H97.8755ZM100.565 72.2736L99.3695 70.8398H102.756C103.586 70.8398 104.206 70.6412 104.615 70.244C105.025 69.8468 105.229 69.2944 105.229 68.5868C105.229 67.8668 105.025 67.3082 104.615 66.911C104.206 66.5138 103.586 66.3152 102.756 66.3152H99.3695L100.565 64.8814V72.2736Z" fill="var(--fill-0, #EEE0D3)"/>
<path d="M116.01 77.1147C115.091 77.1147 114.239 76.9472 113.454 76.612C112.679 76.2768 112.004 75.8051 111.428 75.1969C110.864 74.5886 110.421 73.8749 110.1 73.0556C109.79 72.2363 109.635 71.3426 109.635 70.3743C109.635 69.4061 109.79 68.5123 110.1 67.693C110.421 66.8738 110.869 66.16 111.445 65.5518C112.02 64.9435 112.695 64.4718 113.47 64.1366C114.245 63.8015 115.086 63.6339 115.993 63.6339C116.912 63.6339 117.753 63.8015 118.517 64.1366C119.291 64.4718 119.961 64.9435 120.525 65.5518C121.101 66.16 121.549 66.8738 121.87 67.693C122.191 68.4999 122.351 69.3937 122.351 70.3743C122.351 71.3426 122.191 72.2425 121.87 73.0742C121.549 73.8935 121.101 74.6072 120.525 75.2155C119.961 75.8113 119.291 76.2768 118.517 76.612C117.753 76.9472 116.917 77.1147 116.01 77.1147ZM115.993 74.5452C116.514 74.5452 116.989 74.4459 117.421 74.2473C117.864 74.0487 118.251 73.7631 118.583 73.3907C118.915 73.0183 119.17 72.5777 119.347 72.0687C119.535 71.5598 119.629 70.995 119.629 70.3743C119.629 69.7537 119.535 69.1888 119.347 68.6799C119.17 68.171 118.915 67.7303 118.583 67.3579C118.262 66.9855 117.88 66.7 117.438 66.5014C116.995 66.3028 116.514 66.2035 115.993 66.2035C115.473 66.2035 114.992 66.3028 114.549 66.5014C114.118 66.7 113.736 66.9855 113.404 67.3579C113.072 67.7303 112.812 68.171 112.624 68.6799C112.446 69.1888 112.358 69.7537 112.358 70.3743C112.358 70.9826 112.446 71.5474 112.624 72.0687C112.812 72.5777 113.066 73.0183 113.387 73.3907C113.719 73.7631 114.107 74.0487 114.549 74.2473C114.992 74.4459 115.473 74.5452 115.993 74.5452Z" fill="var(--fill-0, #EEE0D3)"/>
<path d="M124.704 76.8913V63.8573H129.734C130.775 63.8573 131.671 64.0497 132.424 64.4346C133.176 64.807 133.757 65.3469 134.167 66.0545C134.576 66.762 134.781 67.6062 134.781 68.5868C134.781 69.555 134.576 70.3929 134.167 71.1005C133.757 71.7956 133.176 72.3294 132.424 72.7018C131.671 73.0742 130.775 73.2604 129.734 73.2604H126.198L127.394 71.9384V76.8913H124.704ZM132.092 76.8913L129.186 72.1618H132.058L134.997 76.8913H132.092ZM127.394 72.2736L126.198 70.8584H129.585C130.415 70.8584 131.035 70.6598 131.444 70.2626C131.854 69.853 132.058 69.2944 132.058 68.5868C132.058 67.8668 131.854 67.3082 131.444 66.911C131.035 66.5138 130.415 66.3152 129.585 66.3152H126.198L127.394 64.8814V72.2736Z" fill="var(--fill-0, #EEE0D3)"/>
<path d="M135.716 76.8913L140.895 63.8573H143.552L148.747 76.8913H145.925L141.676 65.3842H142.738L138.472 76.8913H135.716ZM138.306 74.0983L139.02 71.8081H144.996L145.726 74.0983H138.306Z" fill="var(--fill-0, #EEE0D3)"/>
<path d="M150.285 76.8913V63.8573H155.564C156.825 63.8573 157.938 64.1304 158.901 64.6766C159.863 65.2104 160.616 65.9614 161.158 66.9296C161.7 67.8979 161.972 69.0461 161.972 70.3743C161.972 71.6901 161.7 72.8384 161.158 73.819C160.616 74.7872 159.863 75.5445 158.901 76.0906C157.938 76.6244 156.825 76.8913 155.564 76.8913H150.285ZM152.974 74.4148H155.431C156.206 74.4148 156.875 74.2535 157.44 73.9307C158.015 73.5956 158.458 73.1239 158.768 72.5156C159.089 71.9074 159.249 71.1936 159.249 70.3743C159.249 69.5426 159.089 68.8289 158.768 68.233C158.458 67.6248 158.015 67.1593 157.44 66.8365C156.875 66.5014 156.206 66.3338 155.431 66.3338H152.974V74.4148Z" fill="var(--fill-0, #EEE0D3)"/>
<path d="M166.805 69.1082H172.399V71.4543H166.805V69.1082ZM167.004 74.4707H173.329V76.8913H164.332V63.8573H173.113V66.2779H167.004V74.4707Z" fill="var(--fill-0, #EEE0D3)"/>
<path d="M175.801 76.8913V63.8573H178.025L184.881 73.2418H183.802V63.8573H186.458V76.8913H184.25L177.378 67.5068H178.457V76.8913H175.801Z" fill="var(--fill-0, #EEE0D3)"/>
<path d="M193.357 77.1147C192.428 77.1147 191.537 76.9782 190.685 76.7051C189.833 76.4196 189.147 76.0534 188.626 75.6065L189.539 73.3349C190.037 73.7321 190.624 74.0611 191.299 74.3217C191.985 74.57 192.677 74.6941 193.374 74.6941C193.905 74.6941 194.331 74.6383 194.652 74.5266C194.984 74.4024 195.228 74.2348 195.383 74.0238C195.538 73.8128 195.615 73.5707 195.615 73.2976C195.615 72.9501 195.493 72.677 195.25 72.4784C195.006 72.2673 194.685 72.0998 194.287 71.9756C193.889 71.8391 193.446 71.715 192.959 71.6032C192.483 71.4791 192.002 71.3301 191.515 71.1564C191.039 70.9826 190.602 70.7591 190.203 70.486C189.805 70.2129 189.479 69.853 189.224 69.4061C188.981 68.9592 188.859 68.3882 188.859 67.693C188.859 66.9482 189.036 66.2717 189.39 65.6635C189.755 65.0428 190.297 64.5525 191.017 64.1925C191.747 63.8201 192.66 63.6339 193.756 63.6339C194.486 63.6339 195.206 63.7332 195.914 63.9318C196.622 64.118 197.247 64.4035 197.79 64.7883L196.96 67.0786C196.417 66.731 195.875 66.4765 195.333 66.3152C194.791 66.1414 194.259 66.0545 193.739 66.0545C193.219 66.0545 192.793 66.1228 192.461 66.2593C192.129 66.3959 191.891 66.5759 191.747 66.7993C191.603 67.0103 191.531 67.2586 191.531 67.5441C191.531 67.8792 191.653 68.1523 191.897 68.3634C192.14 68.562 192.461 68.7233 192.859 68.8475C193.258 68.9716 193.695 69.0957 194.171 69.2199C194.658 69.344 195.139 69.4868 195.615 69.6481C196.102 69.8095 196.545 70.0267 196.943 70.2998C197.342 70.5729 197.662 70.9329 197.906 71.3798C198.16 71.8267 198.288 72.3915 198.288 73.0742C198.288 73.8066 198.105 74.4769 197.74 75.0852C197.375 75.6934 196.827 76.1837 196.097 76.5561C195.377 76.9285 194.464 77.1147 193.357 77.1147Z" fill="var(--fill-0, #EEE0D3)"/>
<path d="M202.702 76.8913V66.3152H198.984V63.8573H209.11V66.3152H205.391V76.8913H202.702Z" fill="var(--fill-0, #EEE0D3)"/>
<path d="M214.148 76.8913L209.135 63.8573H212.04L216.422 75.4017H214.712L219.161 63.8573H221.834L216.804 76.8913H214.148Z" fill="var(--fill-0, #EEE0D3)"/>
<path d="M223.136 76.8913V63.8573H225.825V76.8913H223.136ZM222.97 62.796L225.211 60.1147H228L224.995 62.796H222.97Z" fill="var(--fill-0, #EEE0D3)"/>
</g>
</g>
</svg>
