<svg preserveAspectRatio="none" width="100%" height="100%" overflow="visible" style="display: block;" viewBox="0 0 37 32" fill="none" xmlns="http://www.w3.org/2000/svg">
<path id="Vector" d="M37 29.913C37 30.4665 36.7834 30.9974 36.3979 31.3887C36.0124 31.7801 35.4896 32 34.9444 32H2.05556C1.51039 32 0.98755 31.7801 0.602058 31.3887C0.216567 30.9974 0 30.4665 0 29.913V2.08696C0 1.53346 0.216567 1.00264 0.602058 0.611255C0.98755 0.219875 1.51039 0 2.05556 0C2.60072 0 3.12356 0.219875 3.50905 0.611255C3.89454 1.00264 4.11111 1.53346 4.11111 2.08696V19.3043L11.5642 11.7357C11.7552 11.5411 11.9821 11.3867 12.232 11.2814C12.4818 11.1761 12.7497 11.1218 13.0202 11.1218C13.2908 11.1218 13.5587 11.1761 13.8085 11.2814C14.0584 11.3867 14.2853 11.5411 14.4763 11.7357L18.5 15.8261L25.8657 8.34783H23.9815C23.4363 8.34783 22.9135 8.12795 22.528 7.73657C22.1425 7.34519 21.9259 6.81436 21.9259 6.26087C21.9259 5.70737 22.1425 5.17655 22.528 4.78517C22.9135 4.39379 23.4363 4.17391 23.9815 4.17391H30.8333C31.3785 4.17391 31.9013 4.39379 32.2868 4.78517C32.6723 5.17655 32.8889 5.70737 32.8889 6.26087V13.2174C32.8889 13.7709 32.6723 14.3017 32.2868 14.6931C31.9013 15.0845 31.3785 15.3043 30.8333 15.3043C30.2882 15.3043 29.7653 15.0845 29.3798 14.6931C28.9943 14.3017 28.7778 13.7709 28.7778 13.2174V11.3043L19.9543 20.2643C19.7633 20.4589 19.5364 20.6133 19.2866 20.7186C19.0367 20.8239 18.7688 20.8782 18.4983 20.8782C18.2277 20.8782 17.9599 20.8239 17.71 20.7186C17.4602 20.6133 17.2332 20.4589 17.0423 20.2643L13.0185 16.1739L4.11111 25.2174V27.8261H34.9444C35.4896 27.8261 36.0124 28.046 36.3979 28.4373C36.7834 28.8287 37 29.3595 37 29.913Z" fill="var(--fill-0, #E4794F)"/>
</svg>
