<svg preserveAspectRatio="none" width="100%" height="100%" overflow="visible" style="display: block;" viewBox="0 0 35 35" fill="none" xmlns="http://www.w3.org/2000/svg">
<g id="InstagramLogo">
<path id="Vector" d="M17.5 10.9375C16.2021 10.9375 14.9333 11.3224 13.8541 12.0435C12.7749 12.7646 11.9337 13.7895 11.437 14.9886C10.9403 16.1878 10.8104 17.5073 11.0636 18.7803C11.3168 20.0533 11.9418 21.2226 12.8596 22.1404C13.7774 23.0582 14.9467 23.6832 16.2197 23.9364C17.4927 24.1896 18.8122 24.0597 20.0114 23.563C21.2105 23.0663 22.2354 22.2251 22.9565 21.1459C23.6776 20.0667 24.0625 18.7979 24.0625 17.5C24.0607 15.7601 23.3687 14.0919 22.1384 12.8616C20.9081 11.6313 19.2399 10.9393 17.5 10.9375ZM17.5 20.7812C16.851 20.7812 16.2166 20.5888 15.677 20.2283C15.1374 19.8677 14.7169 19.3553 14.4685 18.7557C14.2202 18.1561 14.1552 17.4964 14.2818 16.8599C14.4084 16.2234 14.7209 15.6387 15.1798 15.1798C15.6387 14.7209 16.2234 14.4084 16.8599 14.2818C17.4964 14.1552 18.1561 14.2202 18.7557 14.4685C19.3553 14.7169 19.8677 15.1374 20.2283 15.677C20.5888 16.2166 20.7812 16.851 20.7812 17.5C20.7812 18.3702 20.4355 19.2048 19.8202 19.8202C19.2048 20.4355 18.3702 20.7812 17.5 20.7812ZM24.0625 2.73438H10.9375C8.76267 2.73691 6.67765 3.60198 5.13981 5.13981C3.60198 6.67765 2.73691 8.76267 2.73438 10.9375V24.0625C2.73691 26.2373 3.60198 28.3224 5.13981 29.8602C6.67765 31.398 8.76267 32.2631 10.9375 32.2656H24.0625C26.2373 32.2631 28.3224 31.398 29.8602 29.8602C31.398 28.3224 32.2631 26.2373 32.2656 24.0625V10.9375C32.2631 8.76267 31.398 6.67765 29.8602 5.13981C28.3224 3.60198 26.2373 2.73691 24.0625 2.73438ZM28.9844 24.0625C28.9844 25.3679 28.4658 26.6198 27.5428 27.5428C26.6198 28.4658 25.3679 28.9844 24.0625 28.9844H10.9375C9.63214 28.9844 8.38024 28.4658 7.45721 27.5428C6.53418 26.6198 6.01563 25.3679 6.01562 24.0625V10.9375C6.01562 9.63214 6.53418 8.38024 7.45721 7.45721C8.38024 6.53418 9.63214 6.01563 10.9375 6.01562H24.0625C25.3679 6.01563 26.6198 6.53418 27.5428 7.45721C28.4658 8.38024 28.9844 9.63214 28.9844 10.9375V24.0625ZM26.7969 10.3906C26.7969 10.8233 26.6686 11.2462 26.4282 11.6059C26.1878 11.9657 25.8462 12.246 25.4465 12.4116C25.0468 12.5772 24.6069 12.6205 24.1826 12.5361C23.7583 12.4517 23.3685 12.2433 23.0626 11.9374C22.7567 11.6315 22.5483 11.2417 22.4639 10.8174C22.3795 10.3931 22.4228 9.95322 22.5884 9.55351C22.754 9.15379 23.0343 8.81215 23.3941 8.57179C23.7538 8.33142 24.1767 8.20312 24.6094 8.20312C25.1895 8.20312 25.7459 8.43359 26.1562 8.84383C26.5664 9.25407 26.7969 9.81046 26.7969 10.3906Z" fill="var(--fill-0, #EEE0D3)"/>
</g>
</svg>
