<svg preserveAspectRatio="none" width="100%" height="100%" overflow="visible" style="display: block;" viewBox="0 0 35 35" fill="none" xmlns="http://www.w3.org/2000/svg">
<g id="LinkedinLogo">
<path id="Vector" d="M29.5312 2.73438H5.46875C4.74355 2.73438 4.04805 3.02246 3.53525 3.53525C3.02246 4.04805 2.73438 4.74355 2.73438 5.46875V29.5312C2.73438 30.2565 3.02246 30.952 3.53525 31.4647C4.04805 31.9775 4.74355 32.2656 5.46875 32.2656H29.5312C30.2565 32.2656 30.952 31.9775 31.4647 31.4647C31.9775 30.952 32.2656 30.2565 32.2656 29.5312V5.46875C32.2656 4.74355 31.9775 4.04805 31.4647 3.53525C30.952 3.02246 30.2565 2.73438 29.5312 2.73438ZM28.9844 28.9844H6.01562V6.01562H28.9844V28.9844ZM15.3125 24.0625V16.4062C15.3128 16.0653 15.4194 15.7329 15.6173 15.4553C15.8152 15.1777 16.0947 14.9687 16.417 14.8572C16.7392 14.7458 17.0882 14.7376 17.4153 14.8336C17.7424 14.9297 18.0315 15.1252 18.2424 15.3932C19.0757 14.9564 20.0076 14.742 20.948 14.7707C21.8884 14.7993 22.8055 15.0702 23.6106 15.5569C24.4158 16.0437 25.0817 16.7299 25.5441 17.5493C26.0064 18.3687 26.2496 19.2935 26.25 20.2344V24.0625C26.25 24.4976 26.0771 24.9149 25.7695 25.2226C25.4618 25.5303 25.0445 25.7031 24.6094 25.7031C24.1743 25.7031 23.757 25.5303 23.4493 25.2226C23.1416 24.9149 22.9688 24.4976 22.9688 24.0625V20.2344C22.9688 19.6542 22.7383 19.0978 22.328 18.6876C21.9178 18.2773 21.3614 18.0469 20.7812 18.0469C20.2011 18.0469 19.6447 18.2773 19.2345 18.6876C18.8242 19.0978 18.5938 19.6542 18.5938 20.2344V24.0625C18.5937 24.4976 18.4209 24.9149 18.1132 25.2226C17.8055 25.5303 17.3882 25.7031 16.9531 25.7031C16.518 25.7031 16.1007 25.5303 15.793 25.2226C15.4854 24.9149 15.3125 24.4976 15.3125 24.0625ZM13.125 16.4062V24.0625C13.125 24.4976 12.9521 24.9149 12.6445 25.2226C12.3368 25.5303 11.9195 25.7031 11.4844 25.7031C11.0493 25.7031 10.632 25.5303 10.3243 25.2226C10.0166 24.9149 9.84375 24.4976 9.84375 24.0625V16.4062C9.84375 15.9711 10.0166 15.5538 10.3243 15.2462C10.632 14.9385 11.0493 14.7656 11.4844 14.7656C11.9195 14.7656 12.3368 14.9385 12.6445 15.2462C12.9521 15.5538 13.125 15.9711 13.125 16.4062ZM9.29688 10.9375C9.29688 10.5049 9.42517 10.0819 9.66554 9.72219C9.9059 9.36246 10.2475 9.08208 10.6473 8.91651C11.047 8.75095 11.4868 8.70763 11.9111 8.79203C12.3355 8.87644 12.7252 9.08478 13.0312 9.3907C13.3371 9.69663 13.5454 10.0864 13.6298 10.5107C13.7142 10.9351 13.6709 11.3749 13.5054 11.7746C13.3398 12.1743 13.0594 12.516 12.6997 12.7563C12.34 12.9967 11.917 13.125 11.4844 13.125C10.9042 13.125 10.3478 12.8945 9.93758 12.4843C9.52734 12.0741 9.29688 11.5177 9.29688 10.9375Z" fill="var(--fill-0, #EEE0D3)"/>
</g>
</svg>
