<svg preserveAspectRatio="none" width="100%" height="100%" overflow="visible" style="display: block;" viewBox="0 0 38 18" fill="none" xmlns="http://www.w3.org/2000/svg">
<path id="Vector" d="M38 9C38.0002 10.78 37.4611 12.52 36.4507 14.0001C35.4404 15.4802 34.0043 16.6337 32.324 17.3149C30.6437 17.9961 28.7947 18.1743 27.0109 17.827C25.2271 17.4797 23.5887 16.6225 22.3027 15.3637L22.2276 15.2842L13.0542 5.14696C12.2786 4.40184 11.2954 3.89749 10.2281 3.69722C9.16071 3.49695 8.05667 3.60968 7.05453 4.02125C6.05238 4.43283 5.19676 5.12491 4.59505 6.01066C3.99334 6.89641 3.67235 7.93636 3.67235 9C3.67235 10.0636 3.99334 11.1036 4.59505 11.9893C5.19676 12.8751 6.05238 13.5672 7.05453 13.9787C8.05667 14.3903 9.16071 14.503 10.2281 14.3028C11.2954 14.1025 12.2786 13.5982 13.0542 12.853L13.5262 12.3311C13.8495 11.9731 14.3049 11.7555 14.7922 11.7261C15.2795 11.6967 15.7587 11.8579 16.1245 12.1744C16.4903 12.4908 16.7127 12.9365 16.7427 13.4134C16.7727 13.8903 16.608 14.3593 16.2846 14.7173L15.7713 15.2842L15.6962 15.3637C14.4102 16.6221 12.7718 17.479 10.9882 17.8261C9.2046 18.1732 7.35588 17.9949 5.67582 17.3138C3.99576 16.6326 2.5598 15.4792 1.54952 13.9994C0.539234 12.5195 0 10.7798 0 9C0 7.22025 0.539234 5.48046 1.54952 4.00063C2.5598 2.5208 3.99576 1.36738 5.67582 0.68623C7.35588 0.00507814 9.2046 -0.17322 10.9882 0.173882C12.7718 0.520984 14.4102 1.3779 15.6962 2.63627L15.7713 2.71576L24.9447 12.853C25.7203 13.5982 26.7034 14.1025 27.7708 14.3028C28.8382 14.503 29.9422 14.3903 30.9444 13.9787C31.9465 13.5672 32.8021 12.8751 33.4038 11.9893C34.0056 11.1036 34.3266 10.0636 34.3266 9C34.3266 7.93636 34.0056 6.89641 33.4038 6.01066C32.8021 5.12491 31.9465 4.43283 30.9444 4.02125C29.9422 3.60968 28.8382 3.49695 27.7708 3.69722C26.7034 3.89749 25.7203 4.40184 24.9447 5.14696L24.4727 5.6689C24.3126 5.84616 24.1184 5.99083 23.9012 6.09464C23.684 6.19845 23.448 6.25937 23.2067 6.27393C22.9655 6.28848 22.7236 6.25638 22.495 6.17946C22.2664 6.10254 22.0555 5.98231 21.8744 5.82563C21.6933 5.66895 21.5455 5.47889 21.4394 5.2663C21.3333 5.05371 21.2711 4.82275 21.2562 4.58662C21.2413 4.35049 21.2741 4.1138 21.3527 3.89007C21.4313 3.66634 21.5542 3.45995 21.7143 3.28269L22.2276 2.71576L22.3027 2.63627C23.5887 1.37753 25.2271 0.520289 27.0109 0.172975C28.7947 -0.17434 30.6437 0.00387044 32.324 0.685066C34.0043 1.36626 35.4404 2.51984 36.4507 3.99991C37.4611 5.47997 38.0002 7.22003 38 9Z" fill="var(--fill-0, #E4794F)"/>
</svg>
